<?xml version="1.0" encoding="UTF-8"?>
<svg xmlns="http://www.w3.org/2000/svg" version="1.1" xmlns:inkscape="http://www.inkscape.org/namespaces/inkscape" xmlns:sodipodi="http://sodipodi.sourceforge.net/DTD/sodipodi-0.dtd" xmlns:svg="http://www.w3.org/2000/svg" viewBox="0 0 1201.7 441.6">
  <defs>
    <style>
      .cls-1 {
        fill: #fefefe;
      }
    </style>
  </defs>
  <!-- Generator: Adobe Illustrator 28.6.0, SVG Export Plug-In . SVG Version: 1.2.0 Build 709)  -->
  <g>
    <g id="svg2">
      <sodipodi:namedview id="namedview4" bordercolor="#000000" borderopacity="0.25" inkscape:deskcolor="#d1d1d1" inkscape:pagecheckerboard="0" inkscape:pageopacity="0.0" inkscape:showpageshadow="2" pagecolor="#ffffff"/>
      <g id="g8" inkscape:groupmode="layer" inkscape:label="ink_ext_XXXXXX">
        <g id="g10">
          <path id="path12" class="cls-1" d="M536.6,361.1c3.1-15,4.1-30.4,8.1-45.2,1.6,15.2,4.7,30.1,6.9,45.2-5-.1-10,0-15,0"/>
          <path id="path14" d="M1038.7,3.4c5.2,0,10.4,0,15.6,0,1.1,3.5.9,7.9,4.3,10.1,3.8,2.7,8.3,5.9,8.5,11.1,1.4,13.7.4,27.6.4,41.4,12.1,0,24.1.2,36.2-.2-5.1,6.1-10,12.5-15.6,18.2-12.8.9-25.7.7-38.5,2,4,4.4,9,9.6,6.9,16.1-.2,4.7-7.8,6.6-5.3,11.8,4.2,5.1,10.3,8.1,15.3,12.2-3.2,8-5.2,16.5-8.2,24.5-1,.1-2.9.5-3.9.6,6.2,7.1,4.8,18.1-2,24.3,9.8,4.2,14.3,15.2,14.1,25.3,2.8-1.7,5.7-3.3,8.6-4.8,2.3,3.6,4.5,7.3,6.2,11.2-9.3,5.5-18.5,11.1-27.7,16.6,2.8,0,5.6,0,8.5,0,0,3,0,6.1,0,9.1-.9.2-2.7.5-3.5.6.8,22.3,15,40.5,28.3,57.2,12.9-17.6,26.7-34.9,35.3-55.2,4.2-10.1,8.6-21.2,5.8-32.2-1.7-6.2-8.1-9.7-14.2-10.2-11.6-.9-22.5,4-32.2,9.9-1.2-2.1-2.4-4.2-3.5-6.4,8.3-5.5,17.9-8.5,27.6-10.3,8.6-1.4,18.8,0,24.6,7.1,3.8,5,5.6,11.5,5.7,17.7-1.5,14.6-7.2,28.5-14.4,41.2-8.7,15.6-19.7,29.7-30.3,44.1,6.6,9.9,13.7,20.1,15.8,32.1,2.3,13.2.8,28-7.8,38.7-3.1,4.1-6.3,8.1-9.3,12.2,10.6.7,21.2,1.3,31.8,1.2,8.3.2,17-.2,24.8,3.2,3.7,2.2,2.2,8-1.2,9.8-14.2,9.9-31.2,14.7-47.3,20.4-3.2,1-5.4,3.7-7.9,5.7-4.5-2.9-6.9,2.6-11.2,2.9-.5-.5-1.6-1.4-2.1-1.8-1.1,4.2-5.5,4.5-9.1,3.3-.3.6-.8,1.8-1,2.3-2.4.8-5,2.2-7.3.3-.5.6-1.5,1.9-1.9,2.6-2.1.2-4.3.4-6.4.6-.9-.9-1.9-1.7-2.8-2.6-2.6,1-5.3,2-7.9,2.9,0-1-.2-3.1-.3-4.1,2.4-.4,5.3.3,7.3-1.4,1.5-2.4,2.5-6.9,6.3-5.9,3.5,1.8,5.1-2.6,8.3-3,1,.2,2.9.6,3.9.8,1.5-2.3,5.1-5.5,7.7-2.6,2.1-1.7,4-4.4,7.2-3.4,3.3,1,4.8-2.8,7.7-3.5,1.7,1,3.4,1.2,5.3.5,12-3.3,23.9-7.3,35.7-11.6,4.8-1.9,9.9-3.6,13.8-7.1-8.7-2.2-17.8-1.2-26.7-1.3-12.2.4-24.3-.9-36.3-2.3.3,3.7.8,7.5.3,11.3-3,3.4-7.7,4.2-11.9,5-9.3,1.4-18.8,1.6-28.2,1.4-8.3-.3-16.7-.5-24.7-2.9-2.5-.8-5.5-2.1-5.9-5-.4-3.2,0-6.4.5-9.5-10.7-4.9-19-14.3-23.1-25.2-6.3-14.8-5.8-32.3,1.4-46.7,10.2-20.5,28.3-36,37.7-56.9,3.4-7.2,4.7-15.2,5.3-23.1-4-.8-2.8-5.1-3.1-8.1.4-.7,1.3-2.2,1.7-3-3.7-2.5-7.4-4.9-11.1-7.3-5.2,2.3-11.2-4.5-7.4-9.1,1.5-3.2,6.3-4.6,8.7-1.7,2.2,3.3,3.9,7,7.5,8.9-6.7-12.9-3.8-32,10.5-38.3-6.8-6.1-7.8-17.1-2.4-24.4-1,0-3.1-.2-4.1-.3-2.4-8.4-5.1-16.7-7.6-25.1,5.1-3.7,10.5-7.1,15.1-11.4,2.5-2.6-.5-5.8-2.4-7.6-4.2-3.8-4.5-11.1-.6-15.3,1.6-1.8,3.1-3.6,4.4-5.7-12.4-.8-24.8-.4-37.1-1.8-6-5.6-10.7-12.4-16.7-18,12.9.1,25.8.2,38.8.2-.4-13.4-1.2-26.8,0-40.2.2-5.6,4.7-9.4,9-12.3,3.6-2.1,3-6.8,3.8-10.3M30.5,39.8c28.3,0,56.6-.1,84.9,0,19.4,0,38.6,9.9,49.7,25.9,10,14.4,13.5,32.3,13.9,49.5-.2,21.8-8.9,43.7-25,58.6-8.8,7.8-19.8,14-31.9,14.1-20.5.4-41,0-61.5,0,0,27.6.1,55.1,0,82.7-10.1,0-20.1,0-30.2,0,0-37.5,0-75.1,0-112.6,27,0,53.9,0,80.9,0,8.7,0,17.9-1.7,24.7-7.5,10.9-8.8,15.6-23.1,15.6-36.7,0-12.6-4.3-25.9-14.1-34.3-5.4-4.8-12.5-7.1-19.7-7-29.1-.1-58.3,0-87.5,0,0-10.9,0-21.9,0-32.8M269.6,38.9c21.8,54.1,43.6,108.1,65.5,162.2,9.6,23.2,18.4,46.7,28.4,69.7-62.8,0-125.6,0-188.3,0,31-74.2,60.8-148.9,91.4-223.3,1.2-2.8,2.1-5.7,3-8.6M269.4,97.2c-15.7,38.5-31.5,77-47.5,115.4,22.1,0,44.2-.2,66.3,0,0,7.1-.1,14.3,0,21.5-23.8,0-47.7-.1-71.5,0-1.7,4.7-3.5,9.3-5.4,13.9,40.7-.2,81.5-.1,122.2,0-21.1-50.3-43.1-100.3-64-150.7M532.4,39.8c9.9,0,19.8,0,29.7,0,.2,77,.2,154,0,231-9.9-.1-19.8.2-29.7-.2-28.4-46.3-57.5-92.2-86-138.4-9.9-15.5-19.3-31.4-29.3-46.8.4,35.9.1,71.7.1,107.6,16.5,0,33,0,49.5.2-.1,10.7,0,21.3-.2,32-25.9-.4-51.7-.1-77.6-.2.1-61.5,0-123,0-184.6,10.1,0,20.1,0,30.2.2,25.8,42.7,51.8,85.2,77.6,127.9,12,19.2,23.2,38.8,35.5,57.8-.1-62.2-.2-124.5,0-186.7M591.5,39.8c17.7,0,35.4,0,53,0,13,0,26.2-.6,38.9,2.6,23.2,5.2,43.9,20,57,39.7,13.3,19,19.9,42.2,21,65.3,1.8,26.6-4.7,53.9-19.2,76.3-16.2,26.3-44.7,46.3-76.2,47.2-24.9,0-49.7.1-74.6,0,0-29.3-.2-58.6,0-87.8,9.1,0,18.1,0,27.2,0,0,18.3,0,36.7-.2,55,17.2,0,34.4,0,51.5,0,7.7.2,14.7-3.5,21.5-6.6,19.3-9.6,33.2-28.3,38.6-49,3.7-15.2,6.3-31.4,2.6-46.9-4.5-25.7-22.6-47.8-45.3-60.1-6.3-3.2-12.8-6.7-20.1-6.5-16.1-.2-32.3-.2-48.4,0,0,6.3,0,12.5,0,18.7-9.2-.1-18.3,0-27.5-.2,0-15.9-.2-31.7.1-47.5M853.5,39.4c31.2,77.1,62.3,154.3,93.5,231.4-62.7,0-125.4,0-188.1,0,31.8-77,63.1-154.3,94.6-231.5M836.6,137.9c-10.6,24.8-20.2,50-31.2,74.7,22.1.1,44.3-.2,66.4.1,0,7.2,0,14.4,0,21.6-23.8-.4-47.6-.2-71.4-.2-1.6,4.7-3.5,9.4-5.8,13.8,41-.2,81.9-.1,122.9,0-2.7-5.2-4.8-10.6-7.1-16-19.2-44.9-38.3-89.9-57.6-134.7-4.7,13.8-11.2,26.9-16.3,40.6M389.1,238.4c32.8.2,65.7,0,98.5,0,0,10.8.2,21.6,0,32.4-32.9-.2-65.7,0-98.6-.1,0-10.8,0-21.6.1-32.3M44.8,304.7c1.6-5.3,5-9.9,7.1-15.1,1.7,13.1,3.9,26,4.9,39.2,1.1,11.1,2.7,22.1,2.7,33.2.3,8.5-3.2,17-8.6,23.5,1.7-17.2-.9-34.4-2.6-51.5-.7-9.8-2.1-19.6-3.5-29.3M283.7,304.3c2.3-5.2,6.1-9.7,8.9-14.7,7.5,22.6,3.4,46.8,7.4,69.9,1,3.9,1.9,10.3,7.3,9.5,56.4,0,112.8,0,169.1,0-.4-4.5-.6-9.2-2.4-13.5-1.8-3.5-4.7-6.3-7.1-9.4,2.2-4.2,4.3-8.4,6.2-12.7,3.6,5.1,7.3,10.4,8,16.8,1.3,10.7.5,21.6.7,32.4-58.6-.4-117.3.1-175.9-.2-6.2.1-9.4-6.1-10.7-11.2-5-18.2-2.2-37.4-6.1-55.7-.7-4.3-3.3-7.7-5.6-11.2M531.8,312.5c1.3-7.6,3.2-15.2,4.2-22.9,5.5,0,11.1-.1,16.7,0,6.5,35,13,70.1,20.1,105-5.2,0-10.5,0-15.7,0-.9-6.7-2.3-13.3-3.2-20-6.3,0-12.6-.1-19,0-1.3,6.7-2.2,13.4-3.2,20.1-5.3,0-10.5,0-15.8,0,5.8-27.2,10.5-54.6,16-81.9M536.6,361.1c5,0,10,0,15,0-2.1-15.1-5.2-30.1-6.9-45.2-4,14.8-5.1,30.2-8.1,45.2M580.8,289.8c14.2,0,28.4-.3,42.7.2,4.9-.2,8.4,4.7,7.9,9.3-.1,13.8.4,27.6-.3,41.4-1.1,6.7-9,6.8-14.3,6.3,5.8,15.8,11.6,31.6,17.3,47.5-5.5,0-11.1,0-16.6,0-4.8-14.5-9.9-28.9-15.1-43.3-1.9-4.9-2-10.1-2.1-15.2,5.1,0,10.3,0,15.4.2.2-11,0-21.9,0-32.9-6.5,0-13,0-19.5,0,0,30.4,0,60.8,0,91.3-5.2,0-10.4,0-15.5-.1.1-34.9-.1-69.8.1-104.6M645.4,292.1c2.6-2.7,6.6-2.2,10-2.4,10.2,0,20.4-.2,30.7.2,3.9-.2,7.8,2.7,8,6.8.6,8.4.2,16.8.1,25.2-5.2-.1-10.5-.1-15.7-.1,0-6.2,0-12.3.1-18.5-6.6,0-13.2,0-19.8,0,0,25.9.1,51.9,0,77.8,6.6,0,13.2,0,19.8,0,0-9.8,0-19.6,0-29.4-3.9,0-7.7-.1-11.6-.2,0-4.5,0-8.9,0-13.3,9.1,0,18.2.1,27.3,0,0,15.9.2,31.8-.1,47.7.3,3.5-1.8,7.3-5.5,7.8-8.4,1.1-16.9.4-25.3.6-5.4-.2-11,.6-16.2-1.2-4.4-2-3.8-7.3-3.9-11.3,0-26.2,0-52.4,0-78.6.2-3.8-.4-8.1,2.2-11.3M706.4,289.8c5.2,0,10.4,0,15.6,0,0,30.4,0,60.8,0,91.3,6.9,0,13.7,0,20.6,0,.2-30.5,0-60.9.1-91.4,5.1,0,10.3,0,15.4,0,0,31.2,0,62.4,0,93.6,0,3.7-.4,8.8-4.6,10.3-5.1,1.2-10.3.7-15.5.9-8-.1-16.1.3-24.1-.3-4.1,0-7.7-3.9-7.4-8-.1-32.1,0-64.2,0-96.3M770.6,289.9c5.2-.2,10.4-.1,15.6-.1-.2,34.9,0,69.8,0,104.7-5.1,0-10.2,0-15.3,0-.1-34.8,0-69.7-.1-104.5M798.5,289.9c5.3,0,10.6-.1,15.9,0,0,30.1.1,60.3,0,90.4,8.4,0,16.7,0,25.1,0,0,4.7,0,9.5,0,14.3-13.7,0-27.3,0-40.9,0,0-34.9,0-69.7,0-104.5M848.3,289.9c14.3,0,28.6-.2,42.9,0,0,4.6,0,9.3-.2,13.9-9,0-18,0-26.9-.1-.2,10.1,0,20.2-.2,30.3,7.8,0,15.5,0,23.3,0,0,4.6,0,9.2,0,13.8-7.8,0-15.5-.1-23.3,0,0,10.9,0,21.8-.1,32.7,9.2,0,18.4,0,27.6.1.1,4.7,0,9.3,0,14-14.5-.1-28.9,0-43.3,0,.1-34.9,0-69.7,0-104.6M900.8,296.6c.1-4,3.9-7.2,7.9-7,11.1-.3,22.1-.3,33.2,0,4,0,8.2,2.7,8.4,7,.6,8.7,0,17.4.3,26.1-5.3,0-10.5,0-15.8,0,0-6.6,0-13.2,0-19.7-6.3-.1-12.6-.1-18.8-.2.2,6.3-.2,12.6,0,18.9,9.7,9.2,19.3,18.5,29.1,27.6,2.4,2.4,5.2,5,5.2,8.6.3,7.9,0,15.9.1,23.9-.1,3.5.3,7.5-2.3,10.3-2.3,2.4-5.9,2.2-9,2.3-10.2.1-20.4.3-30.6-.1-3.9.1-8.1-2.7-8-6.9-.5-9.2-.2-18.4-.2-27.6,5.2,0,10.4,0,15.5,0,0,7.1,0,14.1,0,21.2,6.2,0,12.5,0,18.7,0,0-6.7,0-13.4.2-20.1-9-8.8-18.1-17.4-27.2-26.1-2.9-2.9-6.9-5.7-7-10.2-.4-9.3-.7-18.7,0-28.1M263.5,305.8c4.3,2.2,8.6,4.4,12.9,6.5-2.3,3.6-4.5,7.4-6.3,11.3-4.1-2.3-8.2-4.6-12.5-6.5,2.1-3.7,4.1-7.4,5.9-11.2M94.5,318.4c8.2,4.6,15.3,11.7,18.5,20.8,3.3,9.6,4.5,19.8,4.5,29.9,52.9-.1,105.9-.2,158.8,0-.3-4.3-.1-8.8-1.7-12.9-1.7-3.9-4.9-6.9-7.7-9.9,2.4-4.1,4.7-8.3,6-12.9,3.2,4.2,6.9,8.5,7.7,14,2.1,11.6,1.1,23.5,1.3,35.3-65.8-.2-131.5,0-197.3,0-5,.2-11.9-2.5-11.9-8.4.2-3.9,0-8.2,2.3-11.6,1.1,2,2.2,4.1,3.2,6.2,11.5.8,23.1.2,34.7.3-.7-8.9-1.4-18.4-6.5-26-3.1-4.5-7.9-7.5-13-9.3.2-5.1.6-10.2,1.1-15.2M455.9,405.6c1.8-3.8,3.8-7.5,5.8-11.2,4.1,2.2,8.3,4.5,12.5,6.5-2.2,3.6-4.1,7.4-6,11.2-4.1-2.2-8.2-4.3-12.3-6.5"/>
        </g>
      </g>
    </g>
  </g>
</svg>