<?xml version="1.0" encoding="UTF-8" ?>
<!DOCTYPE svg PUBLIC "-//W3C//DTD SVG 1.1//EN" "http://www.w3.org/Graphics/SVG/1.1/DTD/svg11.dtd">
<svg width="800pt" height="800pt" viewBox="0 0 800 800" version="1.1" xmlns="http://www.w3.org/2000/svg">
<g id="#fefefeff">
<path fill="#fefefe" opacity="1.00" d=" M 501.14 167.13 C 513.56 163.43 527.37 163.48 539.38 168.65 C 546.73 172.09 551.92 178.67 556.78 184.95 C 562.00 191.73 563.08 200.82 561.51 209.04 C 558.73 222.87 550.85 235.10 541.67 245.57 C 538.87 248.91 535.27 251.38 532.10 254.30 C 531.64 258.56 533.00 262.76 533.01 267.02 C 534.09 279.37 533.84 291.82 535.78 304.09 C 538.40 323.62 543.69 342.62 547.76 361.86 C 549.04 369.81 550.73 377.97 549.16 386.00 C 546.95 399.49 538.72 410.90 530.63 421.53 C 518.19 437.69 502.82 451.81 484.97 461.79 C 478.23 465.33 471.16 468.21 463.97 470.68 C 469.15 465.75 475.71 462.64 481.41 458.40 C 502.15 443.89 521.96 426.78 534.45 404.42 C 538.81 396.31 541.74 387.29 541.86 378.03 C 541.90 372.18 540.66 366.42 539.26 360.76 C 535.79 347.08 530.88 333.77 528.24 319.88 C 524.24 298.47 523.20 276.44 516.49 255.59 C 510.30 235.09 497.68 216.32 480.00 204.03 C 474.39 199.63 467.83 196.74 461.99 192.72 C 465.11 192.88 467.97 194.20 470.96 194.93 C 473.09 195.03 474.09 192.70 475.25 191.30 C 481.88 181.53 489.48 171.08 501.14 167.13 Z" />
<path fill="#fefefe" opacity="1.00" d=" M 253.78 189.79 C 259.19 181.01 266.72 173.27 276.17 168.89 C 271.64 172.81 267.39 177.17 264.44 182.43 C 259.72 192.18 258.36 203.96 263.02 214.01 C 268.14 224.72 277.18 232.82 286.22 240.22 C 288.16 237.63 289.24 234.51 291.19 231.93 C 299.34 219.75 311.60 211.09 324.16 203.96 C 323.40 201.05 321.32 198.75 319.80 196.22 C 315.15 188.79 309.62 181.85 302.87 176.22 C 299.93 173.64 296.58 171.53 294.01 168.55 C 305.48 171.19 316.35 176.94 324.74 185.25 C 328.94 189.34 331.25 195.27 335.99 198.72 C 349.05 191.61 363.61 187.95 378.07 184.93 C 383.40 183.57 388.99 183.29 394.15 181.26 C 395.76 182.75 397.32 185.24 399.89 184.29 C 405.72 182.85 411.77 182.53 417.55 181.00 C 417.84 182.89 418.87 184.54 421.04 184.28 C 428.37 184.01 435.72 183.86 443.05 184.27 C 444.48 184.25 445.77 184.93 447.02 185.55 C 432.66 192.71 416.12 193.24 401.09 198.47 C 400.68 199.99 402.25 200.84 403.09 201.83 C 408.60 207.02 414.27 212.04 419.79 217.22 C 429.60 225.35 437.93 235.06 447.03 243.95 C 452.30 249.03 457.49 254.20 462.21 259.80 C 473.04 272.59 484.41 285.41 490.96 301.04 C 492.92 306.15 495.41 311.26 495.33 316.87 C 492.18 312.53 490.16 307.43 486.40 303.54 C 479.46 296.04 471.70 288.64 461.87 285.20 C 457.27 283.77 451.79 282.80 447.52 285.63 C 442.99 288.24 440.70 293.23 438.88 297.90 C 435.96 306.40 434.42 315.29 432.47 324.04 C 431.81 328.73 429.99 333.90 432.74 338.29 C 440.23 351.76 449.68 364.23 455.30 378.70 C 457.98 384.00 459.09 390.29 456.95 395.97 C 454.60 402.98 450.62 409.33 446.25 415.25 C 443.15 419.79 437.33 420.57 432.57 422.47 C 425.44 424.50 418.41 428.24 410.79 427.43 C 408.74 425.24 408.96 421.87 408.56 419.06 C 408.29 413.66 407.49 407.80 409.74 402.75 C 417.66 393.62 428.80 387.87 436.56 378.57 C 437.51 377.17 439.48 375.04 437.47 373.66 C 433.80 371.38 429.16 371.49 424.97 371.15 C 409.66 370.98 394.35 371.61 379.04 371.74 C 375.64 371.80 372.22 371.54 368.85 372.06 C 366.68 371.97 367.09 374.61 366.99 376.05 C 367.80 378.89 370.26 380.82 372.32 382.76 C 378.68 388.38 385.58 393.37 391.77 399.17 C 397.40 403.94 397.46 412.12 396.68 418.85 C 395.89 422.13 395.81 426.80 392.05 428.14 C 383.48 428.98 375.63 424.62 367.53 422.60 C 361.38 420.65 354.11 420.46 349.35 415.58 C 345.38 411.05 344.35 404.84 343.64 399.06 C 342.14 389.80 343.98 379.97 349.21 372.13 C 356.54 360.65 365.25 349.72 369.58 336.64 C 372.58 324.15 369.70 311.23 367.02 298.94 C 365.77 294.49 364.94 288.97 360.49 286.52 C 355.20 283.48 348.66 284.04 343.05 285.84 C 332.97 288.97 325.09 296.56 318.54 304.54 C 306.81 318.16 302.62 336.48 301.24 353.96 C 300.75 361.27 301.99 369.32 307.00 374.98 C 311.37 379.45 318.12 379.89 323.97 379.01 C 330.45 378.14 336.97 377.20 343.20 375.13 C 338.27 385.38 339.73 397.23 342.36 407.90 C 344.24 415.41 349.60 422.26 357.04 424.86 C 364.14 427.31 371.15 430.04 377.94 433.26 C 385.49 436.77 395.48 433.84 401.76 440.19 C 404.63 447.22 404.99 455.04 407.87 462.07 C 409.87 465.75 414.46 466.56 417.99 468.18 C 425.65 471.41 434.03 473.13 441.18 477.43 C 433.30 483.03 425.34 488.60 418.25 495.19 C 416.32 497.23 413.47 495.17 411.19 495.84 C 410.15 498.26 408.81 501.59 405.52 499.96 C 404.41 499.21 403.44 497.87 401.94 498.04 C 399.44 498.15 397.53 501.32 394.95 500.09 C 389.96 497.86 384.77 495.90 380.44 492.49 C 375.65 488.74 370.04 486.32 364.87 483.18 C 362.76 481.87 360.48 480.85 358.09 480.20 C 348.47 477.47 338.66 474.97 329.81 470.19 C 313.53 461.14 298.16 450.23 285.18 436.81 C 276.05 427.82 267.19 418.28 261.02 406.96 C 255.71 395.84 254.52 382.97 256.99 370.95 C 259.20 357.77 263.32 345.03 267.39 332.34 C 272.08 317.66 272.32 302.12 274.11 286.94 C 275.26 278.41 277.45 270.06 279.71 261.77 C 280.04 260.23 280.70 258.61 280.20 257.04 C 266.84 246.39 256.29 231.86 251.68 215.30 C 249.22 206.99 248.94 197.32 253.78 189.79 Z" />
<path fill="#fefefe" opacity="1.00" d=" M 240.16 497.49 C 243.87 497.43 248.26 498.06 250.45 501.44 C 254.53 507.00 258.92 512.36 263.73 517.32 C 264.96 518.86 266.33 517.15 267.18 516.16 C 271.23 510.92 275.26 505.65 279.64 500.67 C 281.35 499.10 283.43 497.10 285.93 497.38 C 288.22 497.33 287.29 500.29 286.50 501.51 C 281.50 508.72 275.56 515.23 269.72 521.77 C 267.77 524.06 263.97 526.22 261.30 523.82 C 256.55 519.51 252.63 514.40 248.55 509.49 C 245.57 505.63 241.99 502.09 240.16 497.49 Z" />
<path fill="#fefefe" opacity="1.00" d=" M 131.00 497.80 C 138.77 498.82 145.34 503.29 152.00 507.07 C 156.43 509.67 160.97 512.09 165.36 514.77 C 166.96 515.68 168.61 516.86 170.55 516.76 C 171.08 510.58 170.65 504.34 171.14 498.15 C 173.11 498.48 175.76 497.56 177.29 498.99 C 177.29 507.47 177.26 515.95 177.49 524.43 C 174.39 524.17 171.23 523.90 168.35 522.66 C 157.48 518.01 147.89 510.84 137.10 506.07 C 136.56 511.90 137.11 517.78 136.61 523.61 C 134.75 524.93 132.24 524.17 130.10 524.29 C 130.11 515.45 130.10 506.60 131.00 497.80 Z" />
<path fill="#fefefe" opacity="1.00" d=" M 189.42 500.36 C 195.23 497.64 201.84 498.36 208.07 498.19 C 215.15 498.34 222.44 497.74 229.34 499.60 C 235.99 503.04 237.97 512.07 234.97 518.62 C 233.07 521.74 229.84 523.99 226.10 523.92 C 214.23 524.19 202.21 525.49 190.43 523.49 C 180.92 520.27 180.41 504.56 189.42 500.36 M 194.92 504.86 C 188.38 505.12 187.00 515.95 193.11 517.99 C 197.26 519.30 201.70 519.05 206.00 519.10 C 213.32 518.96 220.73 519.43 227.97 517.99 C 231.35 514.13 230.68 508.17 227.28 504.55 C 216.52 503.71 205.68 504.09 194.92 504.86 Z" />
<path fill="#fefefe" opacity="1.00" d=" M 300.89 513.95 C 306.05 508.60 310.07 502.14 316.08 497.65 C 317.75 497.92 319.75 497.70 320.98 499.10 C 325.43 503.35 328.99 508.42 333.12 512.97 C 336.20 516.50 339.99 519.64 341.58 524.21 C 340.94 524.55 339.65 525.21 339.00 525.55 C 335.83 524.45 333.75 521.72 330.97 520.03 C 322.33 519.87 313.65 519.97 305.00 519.78 C 301.25 519.59 299.87 524.65 296.12 524.40 C 294.86 524.42 293.60 524.40 292.35 524.34 C 294.14 520.11 298.09 517.45 300.89 513.95 M 308.07 514.40 C 314.34 514.62 320.62 514.68 326.90 514.73 C 324.26 510.60 321.32 506.65 317.86 503.18 C 313.58 505.91 311.35 510.67 308.07 514.40 Z" />
<path fill="#fefefe" opacity="1.00" d=" M 130.79 537.88 C 154.20 537.76 177.62 537.93 201.03 537.99 C 208.13 538.11 216.19 539.27 221.09 544.95 C 225.01 550.74 225.19 558.36 223.81 565.00 C 222.12 570.04 218.22 574.74 212.94 576.16 C 206.46 578.00 199.64 577.86 192.96 577.98 C 176.38 578.00 159.78 578.39 143.20 577.90 C 143.17 582.52 143.98 587.11 143.76 591.74 C 139.50 592.25 135.19 591.76 130.91 591.99 C 130.34 573.96 130.25 555.91 130.79 537.88 M 143.30 549.36 C 142.99 554.98 143.54 560.64 143.47 566.29 C 160.67 566.55 177.88 566.43 195.08 566.31 C 199.94 565.91 205.10 566.67 209.70 564.70 C 212.37 562.71 212.13 558.86 211.98 555.89 C 211.92 552.73 209.36 549.90 206.09 550.07 C 185.19 548.83 164.22 549.69 143.30 549.36 Z" />
<path fill="#fefefe" opacity="1.00" d=" M 269.75 542.80 C 271.94 540.44 274.21 536.98 277.93 537.62 C 280.54 537.94 283.30 537.25 285.83 538.08 C 290.02 540.83 292.96 545.04 296.33 548.68 C 301.00 553.71 304.94 559.37 309.71 564.32 C 315.07 569.96 320.14 575.86 325.25 581.73 C 328.02 584.94 331.44 587.88 332.79 592.04 C 328.02 591.79 323.11 592.46 318.43 591.39 C 314.20 588.93 313.21 582.30 308.12 581.06 C 290.75 580.70 273.37 580.99 256.00 580.85 C 253.77 580.96 251.11 580.54 249.35 582.25 C 246.79 585.11 245.21 588.76 242.62 591.56 C 237.63 592.47 232.47 591.64 227.43 591.67 C 228.08 590.59 228.64 589.44 229.54 588.56 C 236.74 581.69 242.74 573.69 249.29 566.23 C 256.18 558.47 263.14 550.79 269.75 542.80 M 259.68 571.70 C 273.33 571.56 286.99 571.43 300.65 571.43 C 295.97 565.16 290.63 559.44 285.75 553.33 C 284.06 551.25 282.27 549.23 280.16 547.56 C 273.43 555.69 266.18 563.40 259.68 571.70 Z" />
<path fill="#fefefe" opacity="1.00" d=" M 344.16 537.68 C 348.38 537.79 352.63 537.76 356.82 538.25 C 363.00 540.79 368.60 544.50 374.41 547.75 C 392.25 557.61 409.85 567.91 427.99 577.22 C 427.78 564.15 427.95 551.08 427.90 538.01 C 432.28 537.87 436.65 537.80 441.03 537.77 C 440.96 555.88 441.10 574.00 440.84 592.12 C 435.55 592.00 429.99 592.27 425.08 589.95 C 416.87 586.13 409.23 581.23 401.36 576.77 C 386.65 568.43 372.03 559.89 356.93 552.28 C 357.52 565.46 356.99 578.66 357.12 591.85 C 352.72 591.90 348.32 591.92 343.92 591.97 C 344.18 573.87 343.54 555.77 344.16 537.68 Z" />
<path fill="#fefefe" opacity="1.00" d=" M 456.42 567.95 C 456.47 557.94 456.17 547.92 456.81 537.93 C 463.86 537.42 470.94 537.76 478.00 537.75 C 494.33 537.87 510.66 537.66 526.99 538.04 C 536.39 538.49 547.03 541.06 552.39 549.54 C 556.43 556.85 557.04 565.94 554.75 573.91 C 552.83 581.25 546.96 587.37 539.75 589.67 C 531.13 592.45 521.95 591.85 513.03 592.00 C 494.16 591.92 475.30 592.28 456.44 591.83 C 455.96 583.87 456.52 575.91 456.42 567.95 M 469.77 549.54 C 469.60 559.68 469.69 569.83 469.91 579.97 C 485.27 580.21 500.63 580.01 516.00 580.06 C 522.70 580.01 529.62 580.49 536.07 578.31 C 540.85 576.87 542.70 571.46 543.17 566.98 C 543.91 561.97 542.95 556.29 539.00 552.81 C 534.01 549.50 527.75 549.83 522.02 549.50 C 504.61 549.09 487.19 549.42 469.77 549.54 Z" />
<path fill="#fefefe" opacity="1.00" d=" M 603.33 541.36 C 605.04 539.48 607.01 536.76 609.92 537.44 C 612.53 537.96 615.22 537.17 617.80 537.64 C 622.08 540.43 624.97 544.80 628.38 548.52 C 634.92 555.73 640.84 563.48 647.62 570.47 C 653.63 577.58 660.11 584.29 665.77 591.70 C 661.22 592.05 656.61 592.20 652.07 591.64 C 646.90 590.06 645.97 582.98 641.07 581.13 C 624.06 580.69 607.03 581.05 590.01 580.91 C 587.77 580.93 585.50 580.76 583.31 581.24 C 579.41 583.99 577.78 589.10 573.82 591.73 C 569.21 592.47 564.49 591.82 559.85 591.67 C 561.31 588.96 563.63 586.90 565.73 584.71 C 572.70 576.98 579.13 568.77 586.21 561.13 C 591.98 554.60 597.88 548.17 603.33 541.36 M 604.71 556.66 C 600.56 561.78 595.68 566.28 591.78 571.60 C 599.50 571.17 607.22 571.73 614.94 571.60 C 621.03 571.50 627.12 571.43 633.21 571.65 C 626.60 563.56 620.05 555.34 612.92 547.72 C 609.57 550.02 607.58 553.82 604.71 556.66 Z" />
</g>
<g id="#03bcfeff">
<path fill="#03bcfe" opacity="1.00" d=" M 356.45 4.76 C 373.28 3.50 390.17 3.69 407.03 3.60 C 418.70 3.67 430.42 3.53 442.01 5.05 C 448.97 6.04 456.03 6.31 462.94 7.66 C 488.85 12.13 514.33 19.05 538.94 28.33 C 573.89 40.95 606.43 59.67 636.19 81.80 C 651.49 92.57 665.28 105.29 678.68 118.30 C 685.96 125.41 692.80 132.94 699.19 140.87 C 710.51 153.71 720.69 167.52 730.11 181.80 C 741.97 200.17 753.00 219.16 761.65 239.27 C 778.08 277.56 789.43 318.24 793.18 359.82 C 795.15 379.14 794.86 398.60 794.49 417.99 C 792.38 473.16 778.10 527.75 753.25 577.03 C 747.21 589.66 740.34 601.87 732.63 613.55 C 722.31 629.05 711.62 644.37 699.30 658.37 C 678.34 681.41 655.92 703.37 630.29 721.23 C 616.59 730.76 602.80 740.27 588.06 748.14 C 543.73 771.92 495.03 787.60 445.09 793.75 C 433.41 794.75 421.69 795.21 409.97 795.15 C 385.98 795.07 361.76 796.23 338.04 791.85 C 298.72 785.90 260.48 773.52 224.68 756.29 C 189.26 738.44 155.69 716.47 126.81 689.17 C 101.05 664.53 78.34 636.67 59.67 606.30 C 49.48 590.47 41.30 573.47 33.63 556.32 C 21.92 529.28 13.14 500.95 7.87 471.95 C 5.35 460.14 4.82 448.05 4.06 436.04 C 3.10 426.71 3.81 417.30 2.81 407.98 C 4.11 385.03 2.69 361.94 5.66 339.08 C 12.84 288.05 31.39 238.92 57.79 194.78 C 67.79 178.19 78.88 162.24 91.32 147.39 C 106.66 128.15 124.18 110.64 143.37 95.23 C 179.77 64.19 222.12 40.19 267.36 24.65 C 284.22 18.76 301.43 13.81 318.90 10.09 C 331.35 7.90 343.88 6.07 356.45 4.76 M 397.06 21.55 C 383.65 21.49 370.20 21.53 356.90 23.42 C 346.13 24.47 335.57 27.02 324.81 28.18 C 334.70 45.64 340.04 65.25 343.44 84.91 C 344.14 90.70 345.39 96.40 346.44 102.13 C 343.92 98.41 342.18 94.22 339.46 90.62 C 333.88 82.00 325.58 75.68 319.44 67.52 C 311.60 57.42 304.19 46.24 302.48 33.27 C 290.19 36.60 278.13 40.67 265.97 44.40 C 270.90 54.89 274.85 65.81 278.02 76.96 C 279.24 81.65 282.15 85.70 283.15 90.47 C 278.20 86.14 275.00 80.24 270.34 75.62 C 263.12 68.32 254.13 63.16 246.04 56.93 C 243.23 54.43 239.34 56.09 236.34 57.33 C 219.48 65.22 203.42 74.74 187.80 84.85 C 186.65 85.56 185.73 86.61 186.30 88.05 C 187.58 93.89 189.77 99.52 191.91 105.10 C 197.55 119.97 210.69 130.11 218.01 144.00 C 226.91 159.21 232.49 176.05 237.32 192.91 C 240.26 202.08 242.55 211.44 244.44 220.87 C 245.41 226.01 247.74 230.93 247.53 236.24 C 243.31 230.24 241.56 222.78 236.94 216.98 C 224.68 200.42 208.72 186.78 197.77 169.22 C 195.62 165.16 192.26 160.98 193.23 156.10 C 195.04 146.16 195.86 135.87 194.06 125.87 C 191.73 115.37 187.88 105.27 183.57 95.44 C 182.53 93.26 182.26 90.86 182.44 88.48 C 179.26 91.39 175.57 93.64 172.14 96.22 C 138.13 121.49 108.55 152.67 84.79 187.73 C 73.25 204.64 63.82 222.84 54.18 240.86 C 75.08 240.31 96.08 238.78 116.89 241.52 C 124.87 242.66 132.93 243.22 140.86 244.73 C 181.63 251.88 216.61 285.08 225.73 325.46 C 227.92 334.83 228.14 344.52 227.66 354.09 C 227.00 366.56 232.20 378.60 239.72 388.30 C 244.06 395.09 250.68 399.80 256.18 405.54 C 256.80 405.48 258.04 405.35 258.66 405.29 C 258.52 405.55 258.25 406.06 258.12 406.31 C 255.51 405.66 252.86 405.03 250.50 403.70 C 239.69 398.02 227.09 396.18 217.01 389.06 C 211.84 385.57 208.83 378.68 202.09 377.83 C 193.53 377.64 185.19 382.43 180.29 389.36 C 177.31 393.30 176.40 398.24 174.68 402.76 C 170.66 412.31 163.47 420.68 153.95 425.05 C 140.70 431.20 125.70 431.89 111.32 431.28 C 111.37 430.87 111.46 430.05 111.51 429.64 C 119.69 428.69 129.01 427.46 134.51 420.56 C 142.46 410.62 146.40 397.71 146.28 385.05 C 145.46 368.89 136.93 353.69 124.93 343.10 C 110.44 331.27 91.18 327.48 72.91 326.91 C 68.47 326.41 63.90 327.65 59.56 326.32 C 68.82 322.08 79.80 318.41 84.91 308.85 C 86.23 306.34 87.95 302.82 85.72 300.32 C 81.83 295.24 74.76 295.87 69.07 295.77 C 56.77 295.69 44.93 299.20 33.16 302.32 C 29.82 310.88 28.61 320.06 26.81 329.02 C 24.14 341.89 22.10 354.92 21.21 368.04 C 25.36 366.54 29.55 364.89 34.03 364.81 C 39.72 364.70 45.59 364.27 51.06 366.16 C 55.40 367.73 60.14 368.17 64.23 370.41 C 57.81 370.98 51.41 368.41 45.00 369.97 C 40.26 370.83 35.96 375.11 35.84 380.02 C 37.14 385.57 41.76 389.49 46.14 392.76 C 56.46 400.10 69.06 403.06 81.39 404.89 C 75.83 415.62 65.47 423.48 53.92 426.77 C 43.22 429.68 32.21 431.16 21.34 433.21 C 23.05 446.70 24.07 460.45 27.85 473.55 C 37.45 473.26 46.58 469.49 56.18 469.33 C 53.77 471.67 50.92 473.47 47.95 475.02 C 42.09 478.13 36.71 482.18 30.47 484.56 C 30.86 489.61 32.04 494.55 33.52 499.38 C 34.65 502.84 34.93 506.57 36.66 509.82 C 44.54 502.35 54.79 498.28 64.93 494.89 C 79.23 490.49 94.52 490.48 108.70 485.59 C 113.06 484.04 116.69 481.06 120.93 479.25 C 119.18 483.12 116.39 486.34 113.73 489.61 C 108.36 495.89 102.65 501.98 95.92 506.83 C 89.56 511.62 81.89 514.13 75.04 518.09 C 64.66 523.68 55.72 531.51 47.58 539.96 C 48.27 544.76 50.68 549.01 52.66 553.35 C 64.87 580.14 79.56 605.96 97.87 629.09 C 107.89 641.65 118.50 653.74 129.46 665.49 C 134.85 671.11 142.12 677.05 150.47 675.31 C 161.24 672.46 167.38 662.24 176.35 656.50 C 174.49 660.36 171.66 663.61 169.28 667.15 C 165.14 673.16 161.96 679.87 160.19 686.96 C 159.61 689.18 159.42 691.95 161.36 693.60 C 168.96 700.60 177.68 706.24 186.09 712.21 C 217.40 733.01 251.52 749.81 287.55 760.68 C 286.40 752.61 284.02 744.60 284.82 736.38 C 290.45 744.02 293.59 753.11 297.63 761.62 C 299.21 764.75 303.04 765.31 306.10 766.14 C 306.15 757.38 307.19 748.67 308.40 740.01 C 310.50 721.89 313.14 703.84 315.67 685.78 C 318.02 673.13 320.21 660.45 322.76 647.83 C 323.99 640.03 326.01 632.36 328.65 624.93 C 329.31 623.93 329.50 621.73 331.20 622.16 C 331.77 627.07 331.30 632.02 331.01 636.94 C 326.87 681.23 328.81 725.87 333.44 770.03 C 333.47 771.88 335.66 772.20 337.08 772.58 C 350.97 774.58 364.92 776.34 378.95 776.86 C 397.67 777.15 416.48 777.97 435.12 775.72 C 437.00 775.34 439.41 775.50 440.60 773.69 C 442.12 768.37 441.30 762.75 440.41 757.40 C 438.51 747.38 436.54 736.92 430.60 728.39 C 427.23 723.76 422.17 719.11 415.97 719.99 C 410.00 720.32 404.28 724.35 398.28 722.64 C 392.05 719.36 389.19 711.83 389.56 705.06 C 390.46 694.22 394.29 683.79 394.72 672.90 C 395.07 668.16 390.22 666.22 386.92 664.12 C 384.62 662.91 383.79 660.32 382.92 658.06 C 381.17 653.07 379.13 648.11 378.53 642.81 C 377.55 635.42 375.86 628.04 376.23 620.54 C 377.11 621.83 377.81 623.25 378.16 624.80 C 379.50 630.28 381.11 635.69 382.85 641.06 C 383.71 643.84 385.21 646.80 388.18 647.79 C 395.87 650.67 404.17 651.28 412.00 653.69 C 416.34 655.07 420.86 657.99 421.57 662.87 C 422.92 672.83 420.37 682.91 421.74 692.89 C 422.50 698.34 422.68 704.33 426.15 708.89 C 429.09 712.84 433.06 716.34 437.96 717.49 C 446.98 720.25 455.12 713.42 464.01 712.96 C 483.31 711.90 501.95 720.31 516.70 732.26 C 523.38 737.85 530.08 744.13 533.13 752.51 C 535.95 751.71 538.71 750.70 541.36 749.45 C 558.51 741.56 575.79 733.79 591.89 723.88 C 593.97 722.19 597.50 720.21 596.42 717.03 C 593.49 708.30 585.63 702.03 577.24 698.83 C 567.01 694.68 555.72 696.93 545.08 695.30 C 535.78 692.59 529.00 685.20 522.38 678.55 C 513.81 670.12 507.35 659.63 497.77 652.22 C 490.02 646.66 481.02 643.23 472.20 639.77 C 458.65 634.31 444.58 628.47 434.07 618.00 C 439.33 618.95 443.92 621.98 449.21 622.80 C 463.92 626.18 479.13 625.46 494.08 624.61 C 500.75 624.15 507.28 622.57 513.94 622.05 C 515.78 621.92 518.32 621.79 519.03 623.98 C 524.01 634.70 523.29 646.87 525.60 658.25 C 527.46 668.05 528.58 679.40 536.87 686.16 C 542.77 691.16 551.08 690.04 558.05 688.41 C 572.51 684.88 585.93 678.26 599.62 672.59 C 609.53 668.42 619.99 663.41 631.05 665.05 C 638.94 667.22 645.97 671.73 652.40 676.69 C 653.80 678.04 655.43 676.53 656.49 675.56 C 667.40 664.77 677.89 653.56 687.95 641.98 C 701.27 626.26 713.04 609.30 723.70 591.70 C 725.40 588.17 726.82 584.49 729.27 581.38 C 740.45 563.56 747.98 543.77 755.25 524.11 C 762.23 505.25 766.57 485.56 770.95 465.98 C 770.04 464.90 768.90 464.07 767.78 463.26 C 757.75 456.44 748.35 448.38 736.95 443.87 C 722.15 437.69 705.49 436.91 689.84 439.78 C 681.66 441.59 673.03 447.18 671.40 455.95 C 670.38 460.62 671.91 465.31 671.80 470.00 C 671.06 475.25 665.71 478.53 660.90 479.50 C 651.10 480.25 641.93 475.91 633.00 472.49 C 627.90 470.61 622.52 467.75 616.94 468.98 C 612.93 470.66 611.00 475.21 606.91 476.83 C 601.53 478.89 595.64 478.39 590.00 478.69 C 582.91 478.63 575.31 479.52 568.76 476.25 C 574.46 475.00 580.33 475.90 586.09 475.28 C 589.46 475.07 592.94 473.72 594.73 470.69 C 599.81 462.49 601.83 452.59 607.88 444.94 C 610.54 442.09 613.83 438.40 618.19 439.32 C 629.18 441.36 639.63 446.29 650.95 446.50 C 659.87 446.14 669.54 442.10 673.69 433.75 C 675.94 429.75 674.27 425.12 673.69 420.91 C 671.65 410.46 673.91 399.71 678.05 390.07 C 684.13 376.54 693.98 364.86 705.53 355.66 C 714.00 348.96 724.42 345.34 734.95 343.47 C 732.19 348.66 726.17 351.02 723.27 356.07 C 723.28 359.05 725.71 361.39 727.66 363.42 C 736.86 371.78 748.46 376.88 760.16 380.73 C 765.38 382.37 770.68 383.99 776.18 384.39 C 776.18 381.39 776.09 378.40 775.80 375.42 C 773.75 353.09 771.00 330.71 765.32 308.98 C 762.16 296.67 758.69 284.39 754.07 272.55 C 746.89 275.19 739.43 277.08 731.88 278.40 C 721.30 278.92 710.69 278.12 700.10 278.60 C 696.49 278.90 692.50 279.07 689.57 281.48 C 683.06 286.94 677.66 294.03 675.40 302.31 C 673.09 309.19 673.02 316.60 670.46 323.40 C 667.92 329.12 663.07 333.37 658.37 337.31 C 651.23 343.54 642.64 347.71 634.62 352.64 C 628.96 356.20 622.88 359.28 618.14 364.08 C 610.97 370.95 606.25 379.78 601.13 388.16 C 596.51 395.69 591.61 403.11 585.61 409.62 C 581.96 413.79 577.87 417.79 572.70 420.01 C 574.71 416.37 577.63 413.33 579.59 409.66 C 584.84 399.92 587.28 389.01 589.38 378.23 C 591.78 365.97 591.20 353.37 592.94 341.04 C 593.52 336.82 598.58 336.26 602.00 336.09 C 617.31 335.43 632.67 338.46 647.95 336.40 C 655.63 335.16 663.23 329.77 665.21 321.96 C 666.34 312.63 664.91 303.24 663.21 294.06 C 660.99 280.55 656.72 267.50 654.12 254.08 C 653.37 250.44 653.00 246.65 653.92 243.01 C 655.21 237.72 656.30 232.13 659.70 227.72 C 664.36 221.39 670.26 216.06 674.70 209.55 C 683.04 196.80 682.84 180.31 692.04 168.02 C 693.16 166.39 694.47 164.07 692.89 162.28 C 687.49 154.75 680.99 148.11 674.56 141.48 C 671.07 137.94 667.98 133.98 664.09 130.86 C 663.04 130.01 661.51 128.61 660.35 130.17 C 654.86 135.07 650.47 141.05 645.10 146.08 C 641.36 149.47 638.65 154.11 633.98 156.36 C 634.31 154.41 634.71 152.47 635.34 150.60 C 638.91 140.21 641.94 129.60 646.56 119.60 C 647.33 117.78 648.54 115.06 646.46 113.64 C 635.35 104.90 624.49 95.80 612.74 87.92 C 606.45 100.10 599.76 112.16 595.18 125.12 C 593.70 129.74 591.13 133.88 588.25 137.74 C 592.87 118.86 594.41 98.93 603.06 81.26 C 594.04 75.69 584.73 70.64 575.43 65.55 C 565.73 60.36 556.00 55.11 545.61 51.38 C 543.89 57.01 541.68 63.51 536.09 66.38 C 536.77 60.48 539.66 55.07 539.99 49.11 C 510.72 36.48 479.47 28.74 447.93 24.46 C 446.94 27.18 447.26 30.16 446.86 32.98 C 445.21 47.32 444.14 61.72 441.92 75.99 C 440.11 88.11 439.43 100.40 437.04 112.43 C 436.26 116.53 434.51 120.35 432.64 124.05 C 432.04 115.68 433.56 107.38 433.26 99.03 C 433.28 80.01 432.08 61.02 431.13 42.04 C 430.45 35.60 430.68 29.05 429.36 22.70 C 418.62 21.79 407.83 21.71 397.06 21.55 M 728.85 217.06 C 728.51 220.44 727.96 223.80 727.11 227.08 C 725.26 233.70 726.39 241.12 730.09 246.91 C 734.31 253.73 742.28 257.01 749.77 258.80 C 747.31 253.13 744.48 247.64 741.82 242.07 C 737.66 233.66 734.10 224.89 728.85 217.06 M 38.44 285.02 C 38.97 284.94 40.03 284.79 40.56 284.72 C 40.40 283.61 39.47 282.44 40.27 281.37 C 42.42 276.30 44.76 271.15 44.94 265.55 C 40.54 271.06 40.81 278.61 38.44 285.02 Z" />
<path fill="#03bcfe" opacity="1.00" d=" M 416.13 55.98 C 418.29 51.31 418.65 45.88 421.65 41.60 C 425.26 55.38 426.06 69.78 425.89 83.97 C 426.18 93.13 425.31 102.46 422.11 111.10 C 417.56 123.80 419.68 137.49 419.56 150.67 C 419.16 150.50 418.34 150.17 417.93 150.00 C 417.83 143.31 416.82 136.69 416.23 130.05 C 414.45 114.91 409.57 100.33 403.83 86.27 C 402.95 83.69 401.52 80.72 402.95 78.07 C 406.14 70.00 413.10 64.14 416.13 55.98 Z" />
<path fill="#03bcfe" opacity="1.00" d=" M 557.43 87.55 C 560.38 86.67 566.59 87.60 565.25 91.93 C 560.93 104.58 547.26 111.46 543.58 124.44 C 542.35 127.95 542.65 132.21 540.05 135.10 C 536.32 129.47 535.71 122.49 535.57 115.93 C 535.70 106.50 541.72 98.41 548.83 92.75 C 551.40 90.60 554.18 88.55 557.43 87.55 Z" />
<path fill="#03bcfe" opacity="1.00" d=" M 297.93 116.72 C 301.84 117.63 304.51 120.95 306.88 123.95 C 314.71 134.43 315.58 147.91 319.43 160.00 C 315.93 157.72 313.68 154.10 310.92 151.06 C 307.36 146.63 302.59 142.77 301.17 137.02 C 301.04 133.36 302.52 129.71 301.56 126.07 C 300.73 122.82 299.10 119.85 297.93 116.72 Z" />
<path fill="#03bcfe" opacity="1.00" d=" M 600.65 205.62 C 604.09 199.57 608.60 193.23 615.57 191.09 C 615.23 196.78 613.15 202.16 612.63 207.81 C 611.67 216.11 610.64 224.75 606.28 232.05 C 601.48 239.91 593.79 245.28 586.52 250.64 C 584.05 252.52 581.59 254.44 578.85 255.93 C 583.38 247.58 590.91 241.04 594.02 231.89 C 597.46 223.46 597.25 214.03 600.65 205.62 Z" />
<path fill="#03bcfe" opacity="1.00" d=" M 137.05 224.01 C 143.43 222.36 148.10 216.28 155.00 216.28 C 164.45 216.38 172.92 222.05 178.70 229.21 C 183.15 234.62 187.59 240.36 189.72 247.13 C 184.60 244.49 180.48 240.32 175.35 237.69 C 164.27 230.89 150.85 228.37 137.99 229.79 C 132.02 230.46 126.00 230.40 120.02 231.02 C 115.91 231.44 111.76 231.25 107.70 230.47 C 111.17 228.30 115.28 227.82 119.26 227.40 C 125.28 226.81 131.22 225.59 137.05 224.01 Z" />
<path fill="#03bcfe" opacity="1.00" d=" M 329.27 330.03 C 332.65 330.46 334.71 333.39 336.95 335.63 C 340.71 336.97 344.46 335.56 348.01 334.25 C 346.63 342.21 335.46 342.20 331.00 336.95 C 329.08 335.16 329.47 332.38 329.27 330.03 Z" />
<path fill="#03bcfe" opacity="1.00" d=" M 460.88 335.18 C 463.14 333.75 465.01 331.60 467.78 331.10 C 467.50 333.35 467.89 336.14 465.82 337.69 C 461.88 341.27 455.93 340.64 451.46 338.46 C 451.37 337.53 451.30 336.62 451.23 335.70 C 454.43 335.65 457.75 336.11 460.88 335.18 Z" />
<path fill="#03bcfe" opacity="1.00" d=" M 707.34 525.30 C 714.93 521.83 721.36 515.27 730.03 514.60 C 735.21 514.42 740.55 514.27 745.50 516.06 C 740.97 520.83 735.21 524.13 729.79 527.76 C 724.14 531.10 718.63 535.25 711.96 536.24 C 703.38 537.67 694.43 536.83 686.28 533.76 C 682.90 532.37 679.06 532.06 676.04 529.89 C 686.54 529.34 697.63 530.07 707.34 525.30 Z" />
<path fill="#03bcfe" opacity="1.00" d=" M 719.97 583.10 C 722.64 581.75 726.16 583.03 725.42 586.53 C 723.72 585.41 719.27 586.05 719.97 583.10 Z" />
<path fill="#03bcfe" opacity="1.00" d=" M 281.31 672.61 C 284.68 675.55 286.29 679.82 288.21 683.74 C 290.07 687.94 291.81 692.35 292.11 696.98 C 291.64 700.03 289.52 702.41 287.73 704.79 C 286.02 706.91 285.39 709.61 284.50 712.13 C 284.05 707.05 284.54 701.97 285.17 696.94 C 286.27 688.66 284.45 680.26 281.31 672.61 Z" />
</g>
<g id="#202843ff">
<path fill="#202843" opacity="1.00" d=" M 397.06 21.55 C 407.83 21.71 418.62 21.79 429.36 22.70 C 430.68 29.05 430.45 35.60 431.13 42.04 C 432.08 61.02 433.28 80.01 433.26 99.03 C 433.56 107.38 432.04 115.68 432.64 124.05 C 434.51 120.35 436.26 116.53 437.04 112.43 C 439.43 100.40 440.11 88.11 441.92 75.99 C 444.14 61.72 445.21 47.32 446.86 32.98 C 447.26 30.16 446.94 27.18 447.93 24.46 C 479.47 28.74 510.72 36.48 539.99 49.11 C 539.66 55.07 536.77 60.48 536.09 66.38 C 541.68 63.51 543.89 57.01 545.61 51.38 C 556.00 55.11 565.73 60.36 575.43 65.55 C 584.73 70.64 594.04 75.69 603.06 81.26 C 594.41 98.93 592.87 118.86 588.25 137.74 C 591.13 133.88 593.70 129.74 595.18 125.12 C 599.76 112.16 606.45 100.10 612.74 87.92 C 624.49 95.80 635.35 104.90 646.46 113.64 C 648.54 115.06 647.33 117.78 646.56 119.60 C 641.94 129.60 638.91 140.21 635.34 150.60 C 634.71 152.47 634.31 154.41 633.98 156.36 C 638.65 154.11 641.36 149.47 645.10 146.08 C 650.47 141.05 654.86 135.07 660.35 130.17 C 661.51 128.61 663.04 130.01 664.09 130.86 C 667.98 133.98 671.07 137.94 674.56 141.48 C 680.99 148.11 687.49 154.75 692.89 162.28 C 694.47 164.07 693.16 166.39 692.04 168.02 C 682.84 180.31 683.04 196.80 674.70 209.55 C 670.26 216.06 664.36 221.39 659.70 227.72 C 656.30 232.13 655.21 237.72 653.92 243.01 C 653.00 246.65 653.37 250.44 654.12 254.08 C 656.72 267.50 660.99 280.55 663.21 294.06 C 664.91 303.24 666.34 312.63 665.21 321.96 C 663.23 329.77 655.63 335.16 647.95 336.40 C 632.67 338.46 617.31 335.43 602.00 336.09 C 598.58 336.26 593.52 336.82 592.94 341.04 C 591.20 353.37 591.78 365.97 589.38 378.23 C 587.28 389.01 584.84 399.92 579.59 409.66 C 577.63 413.33 574.71 416.37 572.70 420.01 C 577.87 417.79 581.96 413.79 585.61 409.62 C 591.61 403.11 596.51 395.69 601.13 388.16 C 606.25 379.78 610.97 370.95 618.14 364.08 C 622.88 359.28 628.96 356.20 634.62 352.64 C 642.64 347.71 651.23 343.54 658.37 337.31 C 663.07 333.37 667.92 329.12 670.46 323.40 C 673.02 316.60 673.09 309.19 675.40 302.31 C 677.66 294.03 683.06 286.94 689.57 281.48 C 692.50 279.07 696.49 278.90 700.10 278.60 C 710.69 278.12 721.30 278.92 731.88 278.40 C 739.43 277.08 746.89 275.19 754.07 272.55 C 758.69 284.39 762.16 296.67 765.32 308.98 C 771.00 330.71 773.75 353.09 775.80 375.42 C 776.09 378.40 776.18 381.39 776.18 384.39 C 770.68 383.99 765.38 382.37 760.16 380.73 C 748.46 376.88 736.86 371.78 727.66 363.42 C 725.71 361.39 723.28 359.05 723.27 356.07 C 726.17 351.02 732.19 348.66 734.95 343.47 C 724.42 345.34 714.00 348.96 705.53 355.66 C 693.98 364.86 684.13 376.54 678.05 390.07 C 673.91 399.71 671.65 410.46 673.69 420.91 C 674.27 425.12 675.94 429.75 673.69 433.75 C 669.54 442.10 659.87 446.14 650.95 446.50 C 639.63 446.29 629.18 441.36 618.19 439.32 C 613.83 438.40 610.54 442.09 607.88 444.94 C 601.83 452.59 599.81 462.49 594.73 470.69 C 592.94 473.72 589.46 475.07 586.09 475.28 C 580.33 475.90 574.46 475.00 568.76 476.25 C 575.31 479.52 582.91 478.63 590.00 478.69 C 595.64 478.39 601.53 478.89 606.91 476.83 C 611.00 475.21 612.93 470.66 616.94 468.98 C 622.52 467.75 627.90 470.61 633.00 472.49 C 641.93 475.91 651.10 480.25 660.90 479.50 C 665.71 478.53 671.06 475.25 671.80 470.00 C 671.91 465.31 670.38 460.62 671.40 455.95 C 673.03 447.18 681.66 441.59 689.84 439.78 C 705.49 436.91 722.15 437.69 736.95 443.87 C 748.35 448.38 757.75 456.44 767.78 463.26 C 768.90 464.07 770.04 464.90 770.95 465.98 C 766.57 485.56 762.23 505.25 755.25 524.11 C 747.98 543.77 740.45 563.56 729.27 581.38 C 726.82 584.49 725.40 588.17 723.70 591.70 C 713.04 609.30 701.27 626.26 687.95 641.98 C 677.89 653.56 667.40 664.77 656.49 675.56 C 655.43 676.53 653.80 678.04 652.40 676.69 C 645.97 671.73 638.94 667.22 631.05 665.05 C 619.99 663.41 609.53 668.42 599.62 672.59 C 585.93 678.26 572.51 684.88 558.05 688.41 C 551.08 690.04 542.77 691.16 536.87 686.16 C 528.58 679.40 527.46 668.05 525.60 658.25 C 523.29 646.87 524.01 634.70 519.03 623.98 C 518.32 621.79 515.78 621.92 513.94 622.05 C 507.28 622.57 500.75 624.15 494.08 624.61 C 479.13 625.46 463.92 626.18 449.21 622.80 C 443.92 621.98 439.33 618.95 434.07 618.00 C 444.58 628.47 458.65 634.31 472.20 639.77 C 481.02 643.23 490.02 646.66 497.77 652.22 C 507.35 659.63 513.81 670.12 522.38 678.55 C 529.00 685.20 535.78 692.59 545.08 695.30 C 555.72 696.93 567.01 694.68 577.24 698.83 C 585.63 702.03 593.49 708.30 596.42 717.03 C 597.50 720.21 593.97 722.19 591.89 723.88 C 575.79 733.79 558.51 741.56 541.36 749.45 C 538.71 750.70 535.95 751.71 533.13 752.51 C 530.08 744.13 523.38 737.85 516.70 732.26 C 501.95 720.31 483.31 711.90 464.01 712.96 C 455.12 713.42 446.98 720.25 437.96 717.49 C 433.06 716.34 429.09 712.84 426.15 708.89 C 422.68 704.33 422.50 698.34 421.74 692.89 C 420.37 682.91 422.92 672.83 421.57 662.87 C 420.86 657.99 416.34 655.07 412.00 653.69 C 404.17 651.28 395.87 650.67 388.18 647.79 C 385.21 646.80 383.71 643.84 382.85 641.06 C 381.11 635.69 379.50 630.28 378.16 624.80 C 377.81 623.25 377.11 621.83 376.23 620.54 C 375.86 628.04 377.55 635.42 378.53 642.81 C 379.13 648.11 381.17 653.07 382.92 658.06 C 383.79 660.32 384.62 662.91 386.92 664.12 C 390.22 666.22 395.07 668.16 394.72 672.90 C 394.29 683.79 390.46 694.22 389.56 705.06 C 389.19 711.83 392.05 719.36 398.28 722.64 C 404.28 724.35 410.00 720.32 415.97 719.99 C 422.17 719.11 427.23 723.76 430.60 728.39 C 436.54 736.92 438.51 747.38 440.41 757.40 C 441.30 762.75 442.12 768.37 440.60 773.69 C 439.41 775.50 437.00 775.34 435.12 775.72 C 416.48 777.97 397.67 777.15 378.95 776.86 C 364.92 776.34 350.97 774.58 337.08 772.58 C 335.66 772.20 333.47 771.88 333.44 770.03 C 328.81 725.87 326.87 681.23 331.01 636.94 C 331.30 632.02 331.77 627.07 331.20 622.16 C 329.50 621.73 329.31 623.93 328.65 624.93 C 326.01 632.36 323.99 640.03 322.76 647.83 C 320.21 660.45 318.02 673.13 315.67 685.78 C 313.14 703.84 310.50 721.89 308.40 740.01 C 307.19 748.67 306.15 757.38 306.10 766.14 C 303.04 765.31 299.21 764.75 297.63 761.62 C 293.59 753.11 290.45 744.02 284.82 736.38 C 284.02 744.60 286.40 752.61 287.55 760.68 C 251.52 749.81 217.40 733.01 186.09 712.21 C 177.68 706.24 168.96 700.60 161.36 693.60 C 159.42 691.95 159.61 689.18 160.19 686.96 C 161.96 679.87 165.14 673.16 169.28 667.15 C 171.66 663.61 174.49 660.36 176.35 656.50 C 167.38 662.24 161.24 672.46 150.47 675.31 C 142.12 677.05 134.85 671.11 129.46 665.49 C 118.50 653.74 107.89 641.65 97.87 629.09 C 79.56 605.96 64.87 580.14 52.66 553.35 C 50.68 549.01 48.27 544.76 47.58 539.96 C 55.72 531.51 64.66 523.68 75.04 518.09 C 81.89 514.13 89.56 511.62 95.92 506.83 C 102.65 501.98 108.36 495.89 113.73 489.61 C 116.39 486.34 119.18 483.12 120.93 479.25 C 116.69 481.06 113.06 484.04 108.70 485.59 C 94.52 490.48 79.23 490.49 64.93 494.89 C 54.79 498.28 44.54 502.35 36.66 509.82 C 34.93 506.57 34.65 502.84 33.52 499.38 C 32.04 494.55 30.86 489.61 30.47 484.56 C 36.71 482.18 42.09 478.13 47.95 475.02 C 50.92 473.47 53.77 471.67 56.18 469.33 C 46.58 469.49 37.45 473.26 27.85 473.55 C 24.07 460.45 23.05 446.70 21.34 433.21 C 32.21 431.16 43.22 429.68 53.92 426.77 C 65.47 423.48 75.83 415.62 81.39 404.89 C 69.06 403.06 56.46 400.10 46.14 392.76 C 41.76 389.49 37.14 385.57 35.84 380.02 C 35.96 375.11 40.26 370.83 45.00 369.97 C 51.41 368.41 57.81 370.98 64.23 370.41 C 60.14 368.17 55.40 367.73 51.06 366.16 C 45.59 364.27 39.72 364.70 34.03 364.81 C 29.55 364.89 25.36 366.54 21.21 368.04 C 22.10 354.92 24.14 341.89 26.81 329.02 C 28.61 320.06 29.82 310.88 33.16 302.32 C 44.93 299.20 56.77 295.69 69.07 295.77 C 74.76 295.87 81.83 295.24 85.72 300.32 C 87.95 302.82 86.23 306.34 84.91 308.85 C 79.80 318.41 68.82 322.08 59.56 326.32 C 63.90 327.65 68.47 326.41 72.91 326.91 C 91.18 327.48 110.44 331.27 124.93 343.10 C 136.93 353.69 145.46 368.89 146.28 385.05 C 146.40 397.71 142.46 410.62 134.51 420.56 C 129.01 427.46 119.69 428.69 111.51 429.64 C 111.46 430.05 111.37 430.87 111.32 431.28 C 125.70 431.89 140.70 431.20 153.95 425.05 C 163.47 420.68 170.66 412.31 174.68 402.76 C 176.40 398.24 177.31 393.30 180.29 389.36 C 185.19 382.43 193.53 377.64 202.09 377.83 C 208.83 378.68 211.84 385.57 217.01 389.06 C 227.09 396.18 239.69 398.02 250.50 403.70 C 252.86 405.03 255.51 405.66 258.12 406.31 C 258.25 406.06 258.52 405.55 258.66 405.29 C 258.04 405.35 256.80 405.48 256.18 405.54 C 250.68 399.80 244.06 395.09 239.72 388.30 C 232.20 378.60 227.00 366.56 227.66 354.09 C 228.14 344.52 227.92 334.83 225.73 325.46 C 216.61 285.08 181.63 251.88 140.86 244.73 C 132.93 243.22 124.87 242.66 116.89 241.52 C 96.08 238.78 75.08 240.31 54.18 240.86 C 63.82 222.84 73.25 204.64 84.79 187.73 C 108.55 152.67 138.13 121.49 172.14 96.22 C 175.57 93.64 179.26 91.39 182.44 88.48 C 182.26 90.86 182.53 93.26 183.57 95.44 C 187.88 105.27 191.73 115.37 194.06 125.87 C 195.86 135.87 195.04 146.16 193.23 156.10 C 192.26 160.98 195.62 165.16 197.77 169.22 C 208.72 186.78 224.68 200.42 236.94 216.98 C 241.56 222.78 243.31 230.24 247.53 236.24 C 247.74 230.93 245.41 226.01 244.44 220.87 C 242.55 211.44 240.26 202.08 237.32 192.91 C 232.49 176.05 226.91 159.21 218.01 144.00 C 210.69 130.11 197.55 119.97 191.91 105.10 C 189.77 99.52 187.58 93.89 186.30 88.05 C 185.73 86.61 186.65 85.56 187.80 84.85 C 203.42 74.74 219.48 65.22 236.34 57.33 C 239.34 56.09 243.23 54.43 246.04 56.93 C 254.13 63.16 263.12 68.32 270.34 75.62 C 275.00 80.24 278.20 86.14 283.15 90.47 C 282.15 85.70 279.24 81.65 278.02 76.96 C 274.85 65.81 270.90 54.89 265.97 44.40 C 278.13 40.67 290.19 36.60 302.48 33.27 C 304.19 46.24 311.60 57.42 319.44 67.52 C 325.58 75.68 333.88 82.00 339.46 90.62 C 342.18 94.22 343.92 98.41 346.44 102.13 C 345.39 96.40 344.14 90.70 343.44 84.91 C 340.04 65.25 334.70 45.64 324.81 28.18 C 335.57 27.02 346.13 24.47 356.90 23.42 C 370.20 21.53 383.65 21.49 397.06 21.55 M 416.13 55.98 C 413.10 64.14 406.14 70.00 402.95 78.07 C 401.52 80.72 402.95 83.69 403.83 86.27 C 409.57 100.33 414.45 114.91 416.23 130.05 C 416.82 136.69 417.83 143.31 417.93 150.00 C 418.34 150.17 419.16 150.50 419.56 150.67 C 419.68 137.49 417.56 123.80 422.11 111.10 C 425.31 102.46 426.18 93.13 425.89 83.97 C 426.06 69.78 425.26 55.38 421.65 41.60 C 418.65 45.88 418.29 51.31 416.13 55.98 M 557.43 87.55 C 554.18 88.55 551.40 90.60 548.83 92.75 C 541.72 98.41 535.70 106.50 535.57 115.93 C 535.71 122.49 536.32 129.47 540.05 135.10 C 542.65 132.21 542.35 127.95 543.58 124.44 C 547.26 111.46 560.93 104.58 565.25 91.93 C 566.59 87.60 560.38 86.67 557.43 87.55 M 297.93 116.72 C 299.10 119.85 300.73 122.82 301.56 126.07 C 302.52 129.71 301.04 133.36 301.17 137.02 C 302.59 142.77 307.36 146.63 310.92 151.06 C 313.68 154.10 315.93 157.72 319.43 160.00 C 315.58 147.91 314.71 134.43 306.88 123.95 C 304.51 120.95 301.84 117.63 297.93 116.72 M 501.14 167.13 C 489.48 171.08 481.88 181.53 475.25 191.30 C 474.09 192.70 473.09 195.03 470.96 194.93 C 467.97 194.20 465.11 192.88 461.99 192.72 C 467.83 196.74 474.39 199.63 480.00 204.03 C 497.68 216.32 510.30 235.09 516.49 255.59 C 523.20 276.44 524.24 298.47 528.24 319.88 C 530.88 333.77 535.79 347.08 539.26 360.76 C 540.66 366.42 541.90 372.18 541.86 378.03 C 541.74 387.29 538.81 396.31 534.45 404.42 C 521.96 426.78 502.15 443.89 481.41 458.40 C 475.71 462.64 469.15 465.75 463.97 470.68 C 471.16 468.21 478.23 465.33 484.97 461.79 C 502.82 451.81 518.19 437.69 530.63 421.53 C 538.72 410.90 546.95 399.49 549.16 386.00 C 550.73 377.97 549.04 369.81 547.76 361.86 C 543.69 342.62 538.40 323.62 535.78 304.09 C 533.84 291.82 534.09 279.37 533.01 267.02 C 533.00 262.76 531.64 258.56 532.10 254.30 C 535.27 251.38 538.87 248.91 541.67 245.57 C 550.85 235.10 558.73 222.87 561.51 209.04 C 563.08 200.82 562.00 191.73 556.78 184.95 C 551.92 178.67 546.73 172.09 539.38 168.65 C 527.37 163.48 513.56 163.43 501.14 167.13 M 253.78 189.79 C 248.94 197.32 249.22 206.99 251.68 215.30 C 256.29 231.86 266.84 246.39 280.20 257.04 C 280.70 258.61 280.04 260.23 279.71 261.77 C 277.45 270.06 275.26 278.41 274.11 286.94 C 272.32 302.12 272.08 317.66 267.39 332.34 C 263.32 345.03 259.20 357.77 256.99 370.95 C 254.52 382.97 255.71 395.84 261.02 406.96 C 267.19 418.28 276.05 427.82 285.18 436.81 C 298.16 450.23 313.53 461.14 329.81 470.19 C 338.66 474.97 348.47 477.47 358.09 480.20 C 360.48 480.85 362.76 481.87 364.87 483.18 C 370.04 486.32 375.65 488.74 380.44 492.49 C 384.77 495.90 389.96 497.86 394.95 500.09 C 397.53 501.32 399.44 498.15 401.94 498.04 C 403.44 497.87 404.41 499.21 405.52 499.96 C 408.81 501.59 410.15 498.26 411.19 495.84 C 413.47 495.17 416.32 497.23 418.25 495.19 C 425.34 488.60 433.30 483.03 441.18 477.43 C 434.03 473.13 425.65 471.41 417.99 468.18 C 414.46 466.56 409.87 465.75 407.87 462.07 C 404.99 455.04 404.63 447.22 401.76 440.19 C 395.48 433.84 385.49 436.77 377.94 433.26 C 371.15 430.04 364.14 427.31 357.04 424.86 C 349.60 422.26 344.24 415.41 342.36 407.90 C 339.73 397.23 338.27 385.38 343.20 375.13 C 336.97 377.20 330.45 378.14 323.97 379.01 C 318.12 379.89 311.37 379.45 307.00 374.98 C 301.99 369.32 300.75 361.27 301.24 353.96 C 302.62 336.48 306.81 318.16 318.54 304.54 C 325.09 296.56 332.97 288.97 343.05 285.84 C 348.66 284.04 355.20 283.48 360.49 286.52 C 364.94 288.97 365.77 294.49 367.02 298.94 C 369.70 311.23 372.58 324.15 369.58 336.64 C 365.25 349.72 356.54 360.65 349.21 372.13 C 343.98 379.97 342.14 389.80 343.64 399.06 C 344.35 404.84 345.38 411.05 349.35 415.58 C 354.11 420.46 361.38 420.65 367.53 422.60 C 375.63 424.62 383.48 428.98 392.05 428.14 C 395.81 426.80 395.89 422.13 396.68 418.85 C 397.46 412.12 397.40 403.94 391.77 399.17 C 385.58 393.37 378.68 388.38 372.32 382.76 C 370.26 380.82 367.80 378.89 366.99 376.05 C 367.09 374.61 366.68 371.97 368.85 372.06 C 372.22 371.54 375.64 371.80 379.04 371.74 C 394.35 371.61 409.66 370.98 424.97 371.15 C 429.16 371.49 433.80 371.38 437.47 373.66 C 439.48 375.04 437.51 377.17 436.56 378.57 C 428.80 387.87 417.66 393.62 409.74 402.75 C 407.49 407.80 408.29 413.66 408.56 419.06 C 408.96 421.87 408.74 425.24 410.79 427.43 C 418.41 428.24 425.44 424.50 432.57 422.47 C 437.33 420.57 443.15 419.79 446.25 415.25 C 450.62 409.33 454.60 402.98 456.95 395.97 C 459.09 390.29 457.98 384.00 455.30 378.70 C 449.68 364.23 440.23 351.76 432.74 338.29 C 429.99 333.90 431.81 328.73 432.47 324.04 C 434.42 315.29 435.96 306.40 438.88 297.90 C 440.70 293.23 442.99 288.24 447.52 285.63 C 451.79 282.80 457.27 283.77 461.87 285.20 C 471.70 288.64 479.46 296.04 486.40 303.54 C 490.16 307.43 492.18 312.53 495.33 316.87 C 495.41 311.26 492.92 306.15 490.96 301.04 C 484.41 285.41 473.04 272.59 462.21 259.80 C 457.49 254.20 452.30 249.03 447.03 243.95 C 437.93 235.06 429.60 225.35 419.79 217.22 C 414.27 212.04 408.60 207.02 403.09 201.83 C 402.25 200.84 400.68 199.99 401.09 198.47 C 416.12 193.24 432.66 192.71 447.02 185.55 C 445.77 184.93 444.48 184.25 443.05 184.27 C 435.72 183.86 428.37 184.01 421.04 184.28 C 418.87 184.54 417.84 182.89 417.55 181.00 C 411.77 182.53 405.72 182.85 399.89 184.29 C 397.32 185.24 395.76 182.75 394.15 181.26 C 388.99 183.29 383.40 183.57 378.07 184.93 C 363.61 187.95 349.05 191.61 335.99 198.72 C 331.25 195.27 328.94 189.34 324.74 185.25 C 316.35 176.94 305.48 171.19 294.01 168.55 C 296.58 171.53 299.93 173.64 302.87 176.22 C 309.62 181.85 315.15 188.79 319.80 196.22 C 321.32 198.75 323.40 201.05 324.16 203.96 C 311.60 211.09 299.34 219.75 291.19 231.93 C 289.24 234.51 288.16 237.63 286.22 240.22 C 277.18 232.82 268.14 224.72 263.02 214.01 C 258.36 203.96 259.72 192.18 264.44 182.43 C 267.39 177.17 271.64 172.81 276.17 168.89 C 266.72 173.27 259.19 181.01 253.78 189.79 M 600.65 205.62 C 597.25 214.03 597.46 223.46 594.02 231.89 C 590.91 241.04 583.38 247.58 578.85 255.93 C 581.59 254.44 584.05 252.52 586.52 250.64 C 593.79 245.28 601.48 239.91 606.28 232.05 C 610.64 224.75 611.67 216.11 612.63 207.81 C 613.15 202.16 615.23 196.78 615.57 191.09 C 608.60 193.23 604.09 199.57 600.65 205.62 M 137.05 224.01 C 131.22 225.59 125.28 226.81 119.26 227.40 C 115.28 227.82 111.17 228.30 107.70 230.47 C 111.76 231.25 115.91 231.44 120.02 231.02 C 126.00 230.40 132.02 230.46 137.99 229.79 C 150.85 228.37 164.27 230.89 175.35 237.69 C 180.48 240.32 184.60 244.49 189.72 247.13 C 187.59 240.36 183.15 234.62 178.70 229.21 C 172.92 222.05 164.45 216.38 155.00 216.28 C 148.10 216.28 143.43 222.36 137.05 224.01 M 329.27 330.03 C 329.47 332.38 329.08 335.16 331.00 336.95 C 335.46 342.20 346.63 342.21 348.01 334.25 C 344.46 335.56 340.71 336.97 336.95 335.63 C 334.71 333.39 332.65 330.46 329.27 330.03 M 460.88 335.18 C 457.75 336.11 454.43 335.65 451.23 335.70 C 451.30 336.62 451.37 337.53 451.46 338.46 C 455.93 340.64 461.88 341.27 465.82 337.69 C 467.89 336.14 467.50 333.35 467.78 331.10 C 465.01 331.60 463.14 333.75 460.88 335.18 M 240.16 497.49 C 241.99 502.09 245.57 505.63 248.55 509.49 C 252.63 514.40 256.55 519.51 261.30 523.82 C 263.97 526.22 267.77 524.06 269.72 521.77 C 275.56 515.23 281.50 508.72 286.50 501.51 C 287.29 500.29 288.22 497.33 285.93 497.38 C 283.43 497.10 281.35 499.10 279.64 500.67 C 275.26 505.65 271.23 510.92 267.18 516.16 C 266.33 517.15 264.96 518.86 263.73 517.32 C 258.92 512.36 254.53 507.00 250.45 501.44 C 248.26 498.06 243.87 497.43 240.16 497.49 M 131.00 497.80 C 130.10 506.60 130.11 515.45 130.10 524.29 C 132.24 524.17 134.75 524.93 136.61 523.61 C 137.11 517.78 136.56 511.90 137.10 506.07 C 147.89 510.84 157.48 518.01 168.35 522.66 C 171.23 523.90 174.39 524.17 177.49 524.43 C 177.26 515.95 177.29 507.47 177.29 498.99 C 175.76 497.56 173.11 498.48 171.14 498.15 C 170.65 504.34 171.08 510.58 170.55 516.76 C 168.61 516.86 166.96 515.68 165.36 514.77 C 160.97 512.09 156.43 509.67 152.00 507.07 C 145.34 503.29 138.77 498.82 131.00 497.80 M 189.42 500.36 C 180.41 504.56 180.92 520.27 190.43 523.49 C 202.21 525.49 214.23 524.19 226.10 523.92 C 229.84 523.99 233.07 521.74 234.97 518.62 C 237.97 512.07 235.99 503.04 229.34 499.60 C 222.44 497.74 215.15 498.34 208.07 498.19 C 201.84 498.36 195.23 497.64 189.42 500.36 M 300.89 513.95 C 298.09 517.45 294.14 520.11 292.35 524.34 C 293.60 524.40 294.86 524.42 296.12 524.40 C 299.87 524.65 301.25 519.59 305.00 519.78 C 313.65 519.97 322.33 519.87 330.97 520.03 C 333.75 521.72 335.83 524.45 339.00 525.55 C 339.65 525.21 340.94 524.55 341.58 524.21 C 339.99 519.64 336.20 516.50 333.12 512.97 C 328.99 508.42 325.43 503.35 320.98 499.10 C 319.75 497.70 317.75 497.92 316.08 497.65 C 310.07 502.14 306.05 508.60 300.89 513.95 M 707.34 525.30 C 697.63 530.07 686.54 529.34 676.04 529.89 C 679.06 532.06 682.90 532.37 686.28 533.76 C 694.43 536.83 703.38 537.67 711.96 536.24 C 718.63 535.25 724.14 531.10 729.79 527.76 C 735.21 524.13 740.97 520.83 745.50 516.06 C 740.55 514.27 735.21 514.42 730.03 514.60 C 721.36 515.27 714.93 521.83 707.34 525.30 M 130.79 537.88 C 130.25 555.91 130.34 573.96 130.91 591.99 C 135.19 591.76 139.50 592.25 143.76 591.74 C 143.98 587.11 143.17 582.52 143.20 577.90 C 159.78 578.39 176.38 578.00 192.96 577.98 C 199.64 577.86 206.46 578.00 212.94 576.16 C 218.22 574.74 222.12 570.04 223.81 565.00 C 225.19 558.36 225.01 550.74 221.09 544.95 C 216.19 539.27 208.13 538.11 201.03 537.99 C 177.62 537.93 154.20 537.76 130.79 537.88 M 269.75 542.80 C 263.14 550.79 256.18 558.47 249.29 566.23 C 242.74 573.69 236.74 581.69 229.54 588.56 C 228.64 589.44 228.08 590.59 227.43 591.67 C 232.47 591.64 237.63 592.47 242.62 591.56 C 245.21 588.76 246.79 585.11 249.35 582.25 C 251.11 580.54 253.77 580.96 256.00 580.85 C 273.37 580.99 290.75 580.70 308.12 581.06 C 313.21 582.30 314.20 588.93 318.43 591.39 C 323.11 592.46 328.02 591.79 332.79 592.04 C 331.44 587.88 328.02 584.94 325.25 581.73 C 320.14 575.86 315.07 569.96 309.71 564.32 C 304.94 559.37 301.00 553.71 296.33 548.68 C 292.96 545.04 290.02 540.83 285.83 538.08 C 283.30 537.25 280.54 537.94 277.93 537.62 C 274.21 536.98 271.94 540.44 269.75 542.80 M 344.16 537.68 C 343.54 555.77 344.18 573.87 343.92 591.97 C 348.32 591.92 352.72 591.90 357.12 591.85 C 356.99 578.66 357.52 565.46 356.93 552.28 C 372.03 559.89 386.65 568.43 401.36 576.77 C 409.23 581.23 416.87 586.13 425.08 589.95 C 429.99 592.27 435.55 592.00 440.84 592.12 C 441.10 574.00 440.96 555.88 441.03 537.77 C 436.65 537.80 432.28 537.87 427.90 538.01 C 427.95 551.08 427.78 564.15 427.99 577.22 C 409.85 567.91 392.25 557.61 374.41 547.75 C 368.60 544.50 363.00 540.79 356.82 538.25 C 352.63 537.76 348.38 537.79 344.16 537.68 M 456.42 567.95 C 456.52 575.91 455.96 583.87 456.44 591.83 C 475.30 592.28 494.16 591.92 513.03 592.00 C 521.95 591.85 531.13 592.45 539.75 589.67 C 546.96 587.37 552.83 581.25 554.75 573.91 C 557.04 565.94 556.43 556.85 552.39 549.54 C 547.03 541.06 536.39 538.49 526.99 538.04 C 510.66 537.66 494.33 537.87 478.00 537.75 C 470.94 537.76 463.86 537.42 456.81 537.93 C 456.17 547.92 456.47 557.94 456.42 567.95 M 603.33 541.36 C 597.88 548.17 591.98 554.60 586.21 561.13 C 579.13 568.77 572.70 576.98 565.73 584.71 C 563.63 586.90 561.31 588.96 559.85 591.67 C 564.49 591.82 569.21 592.47 573.82 591.73 C 577.78 589.10 579.41 583.99 583.31 581.24 C 585.50 580.76 587.77 580.93 590.01 580.91 C 607.03 581.05 624.06 580.69 641.07 581.13 C 645.97 582.98 646.90 590.06 652.07 591.64 C 656.61 592.20 661.22 592.05 665.77 591.70 C 660.11 584.29 653.63 577.58 647.62 570.47 C 640.84 563.48 634.92 555.73 628.38 548.52 C 624.97 544.80 622.08 540.43 617.80 537.64 C 615.22 537.17 612.53 537.96 609.92 537.44 C 607.01 536.76 605.04 539.48 603.33 541.36 M 719.97 583.10 C 719.27 586.05 723.72 585.41 725.42 586.53 C 726.16 583.03 722.64 581.75 719.97 583.10 M 281.31 672.61 C 284.45 680.26 286.27 688.66 285.17 696.94 C 284.54 701.97 284.05 707.05 284.50 712.13 C 285.39 709.61 286.02 706.91 287.73 704.79 C 289.52 702.41 291.64 700.03 292.11 696.98 C 291.81 692.35 290.07 687.94 288.21 683.74 C 286.29 679.82 284.68 675.55 281.31 672.61 Z" />
<path fill="#202843" opacity="1.00" d=" M 728.85 217.06 C 734.10 224.89 737.66 233.66 741.82 242.07 C 744.48 247.64 747.31 253.13 749.77 258.80 C 742.28 257.01 734.31 253.73 730.09 246.91 C 726.39 241.12 725.26 233.70 727.11 227.08 C 727.96 223.80 728.51 220.44 728.85 217.06 Z" />
<path fill="#202843" opacity="1.00" d=" M 38.44 285.02 C 40.81 278.61 40.54 271.06 44.94 265.55 C 44.76 271.15 42.42 276.30 40.27 281.37 C 39.47 282.44 40.40 283.61 40.56 284.72 C 40.03 284.79 38.97 284.94 38.44 285.02 Z" />
<path fill="#202843" opacity="1.00" d=" M 194.92 504.86 C 205.68 504.09 216.52 503.71 227.28 504.55 C 230.68 508.17 231.35 514.13 227.97 517.99 C 220.73 519.43 213.32 518.96 206.00 519.10 C 201.70 519.05 197.26 519.30 193.11 517.99 C 187.00 515.95 188.38 505.12 194.92 504.86 Z" />
<path fill="#202843" opacity="1.00" d=" M 308.07 514.40 C 311.35 510.67 313.58 505.91 317.86 503.18 C 321.32 506.65 324.26 510.60 326.90 514.73 C 320.62 514.68 314.34 514.62 308.07 514.40 Z" />
<path fill="#202843" opacity="1.00" d=" M 259.68 571.70 C 266.18 563.40 273.43 555.69 280.16 547.56 C 282.27 549.23 284.06 551.25 285.75 553.33 C 290.63 559.44 295.97 565.16 300.65 571.43 C 286.99 571.43 273.33 571.56 259.68 571.70 Z" />
<path fill="#202843" opacity="1.00" d=" M 604.71 556.66 C 607.58 553.82 609.57 550.02 612.92 547.72 C 620.05 555.34 626.60 563.56 633.21 571.65 C 627.12 571.43 621.03 571.50 614.94 571.60 C 607.22 571.73 599.50 571.17 591.78 571.60 C 595.68 566.28 600.56 561.78 604.71 556.66 Z" />
<path fill="#202843" opacity="1.00" d=" M 143.30 549.36 C 164.22 549.69 185.19 548.83 206.09 550.07 C 209.36 549.90 211.92 552.73 211.98 555.89 C 212.13 558.86 212.37 562.71 209.70 564.70 C 205.10 566.67 199.94 565.91 195.08 566.31 C 177.88 566.43 160.67 566.55 143.47 566.29 C 143.54 560.64 142.99 554.98 143.30 549.36 Z" />
<path fill="#202843" opacity="1.00" d=" M 469.77 549.54 C 487.19 549.42 504.61 549.09 522.02 549.50 C 527.75 549.83 534.01 549.50 539.00 552.81 C 542.95 556.29 543.91 561.97 543.17 566.98 C 542.70 571.46 540.85 576.87 536.07 578.31 C 529.62 580.49 522.70 580.01 516.00 580.06 C 500.63 580.01 485.27 580.21 469.91 579.97 C 469.69 569.83 469.60 559.68 469.77 549.54 Z" />
</g>
</svg>
